<?xml version="1.0" encoding="UTF-8" standalone="no"?><svg xmlns="http://www.w3.org/2000/svg" xmlns:xlink="http://www.w3.org/1999/xlink"><symbol id="clouds2" viewBox="0 -71 512 512"><path d="m408.09375 181.847656c0 37.882813-30.710938 68.59375-68.609375 68.59375h-248.265625c-50.371094 0-91.21875-40.832031-91.21875-91.21875 0-50.375 40.847656-91.21875 91.21875-91.21875 4.519531 0 8.964844.347656 13.316406.976563 20.601563-40.910157 62.964844-68.980469 111.910156-68.980469 59.222657 0 108.835938 41.117188 121.867188 96.355469 1.300781 5.511719 2.238281 11.164062 2.78125 16.921875v.011718c37.136719.851563 67 31.214844 67 68.558594zm0 0" fill="#84abc1"></path><path d="m259.96875 7.78125c-13.558594-5.035156-28.226562-7.77734375-43.523438-7.77734375-48.945312 0-91.296874 28.07421875-111.910156 68.96874975v.011719c-4.355468-.628906-8.796875-.976563-13.316406-.976563-50.386719 0-91.21875 40.84375-91.21875 91.21875 0 50.386719 40.832031 91.21875 91.21875 91.21875h44.089844c-45.402344 0-82.191406-36.800781-82.191406-82.191406 0-40.28125 28.972656-73.796875 67.230468-80.828125 3.785156-.707031 7.660156-1.144531 11.613282-1.300781 1.105468-.039062 2.226562-.066406 3.347656-.066406 14.757812 0 28.613281 3.890625 40.574218 10.714844-1.660156-11.578126-13.632812-22.425782-31.28125-31.167969 9.691407-32.777344 42.675782-63.175781 115.367188-57.824219zm0 0" fill="#4d87a1"></path><path d="m264.3125 245.925781c.496094.085938.789062.085938.835938.085938h-3.796876c.992188 0 1.976563-.03125 2.960938-.085938zm0 0" fill="#84abc1"></path><path d="m512 314.097656c0 30.636719-24.835938 55.476563-55.484375 55.476563h-200.785156c-40.738281 0-73.769531-33.023438-73.769531-73.773438 0-40.738281 33.03125-73.773437 73.769531-73.773437 3.65625 0 7.25.28125 10.769531.792968 16.664062-33.085937 50.925781-55.789062 90.507812-55.789062 47.894532 0 88.019532 33.25 98.558594 77.929688 1.050782 4.457031 1.8125 9.027343 2.25 13.683593v.007813c30.035156.6875 54.183594 25.246094 54.183594 55.445312zm0 0" fill="#d3ddea"></path><path d="m392.207031 173.324219c-10.964843-4.070313-22.828125-6.289063-35.199219-6.289063-39.582031 0-73.835937 22.703125-90.507812 55.777344v.007812c-3.519531-.507812-7.113281-.789062-10.769531-.789062-40.75 0-73.769531 33.03125-73.769531 73.773438 0 40.75 33.019531 73.769531 73.769531 73.769531h35.660156c-36.71875 0-66.472656-29.761719-66.472656-66.46875 0-32.578125 23.429687-59.683594 54.371093-65.371094 3.0625-.570313 6.195313-.925781 9.394532-1.050781.894531-.03125 1.800781-.050782 2.707031-.050782 11.933594 0 23.140625 3.144532 32.8125 8.664063-1.34375-9.367187-11.023437-18.140625-25.300781-25.210937 7.839844-26.507813 34.515625-51.089844 93.304687-46.761719zm0 0" fill="#84abc1"></path></symbol><symbol id="humidity" viewBox="-41 0 512 512"><path d="m103.207031.00390625c-61.679687 35.69531275-103.207031 102.33984375-103.207031 178.72656275 0 2.730469.0546875 5.445312.15625 8.148437 5.039062 129.746094 201.058594 129.746094 206.097656 0 .105469-2.703125.160156-5.417968.160156-8.148437-.003906-76.386719-41.527343-143.03125-103.207031-178.72656275zm0 0" fill="#84abc1"></path><path d="m103.207031 284.191406c-50.246093 0-100.488281-32.46875-103.007812-97.3125-.097657-2.71875-.199219-5.4375-.199219-8.15625 0-76.371094 41.535156-143.027344 103.207031-178.722656-12.4375 35.695312-49.058593 102.351562-49.058593 178.722656 0 2.71875 0 5.4375.050781 8.15625.503906 64.84375 38.886719 97.3125 49.007812 97.3125zm0 0" fill="#4d87a1"></path><path d="m343.625 146.527344c-51.140625 29.59375-85.570312 84.851562-85.570312 148.183594 0 2.261718.046874 4.511718.132812 6.753906 4.179688 107.574218 166.691406 107.574218 170.871094 0 .085937-2.238282.132812-4.492188.132812-6.753906 0-63.332032-34.429687-118.589844-85.566406-148.183594zm0 0" fill="#84abc1"></path><path d="m343.625 382.148438c-41.65625 0-83.3125-26.921876-85.402344-80.683594-.082031-2.253906-.167968-4.507813-.167968-6.761719 0-63.320313 34.4375-118.582031 85.570312-148.175781-10.3125 29.59375-40.671875 84.855468-40.671875 148.175781 0 2.253906 0 4.507813.039063 6.761719.417968 53.761718 32.242187 80.683594 40.632812 80.683594zm0 0" fill="#4d87a1"></path><path d="m161.410156 321.894531c-41.257812 23.878907-69.035156 68.460938-69.035156 119.558594 0 1.824219.035156 3.640625.105469 5.449219 3.371093 86.792968 134.492187 86.792968 137.863281 0 .070312-1.804688.105469-3.625.105469-5.449219 0-51.097656-27.777344-95.679687-69.039063-119.558594zm0 0" fill="#84abc1"></path><path d="m161.410156 512c-33.609375 0-67.21875-21.722656-68.902344-65.097656-.066406-1.820313-.132812-3.636719-.132812-5.457032 0-51.085937 27.78125-95.675781 69.035156-119.554687-8.316406 23.878906-32.816406 68.46875-32.816406 119.554687 0 1.820313 0 3.636719.035156 5.457032.335938 43.375 26.011719 65.097656 32.78125 65.097656zm0 0" fill="#4d87a1"></path></symbol><symbol id="cloudy3" viewBox="0 -10 512 512"><path d="m483.324219 151.332031c-36.757813 36.757813-96.347657 36.757813-133.105469 0-36.757812-36.757812-36.757812-96.347656 0-133.105469.382812-.382812.773438-.757812 1.164062-1.132812-24.765624 3.339844-48.679687 14.519531-67.714843 33.558594-46.179688 46.179687-46.179688 121.050781 0 167.230468 46.179687 46.179688 121.050781 46.179688 167.230469 0 19.039062-19.035156 30.21875-42.949218 33.5625-67.714843-.378907.390625-.753907.78125-1.136719 1.164062zm0 0" fill="#ffd073"></path><path d="m418.253906 241.007812c-43.953125 20.984376-98.183594 13.277344-134.585937-23.125-46.179688-46.183593-46.179688-121.050781 0-167.230468 17.738281-17.738282 39.714843-28.660156 62.664062-32.761719-11.800781 5.625-22.863281 13.335937-32.636719 23.109375-46.179687 46.179688-46.179687 121.046875 0 167.230469 28.4375 28.4375 67.757813 39.363281 104.558594 32.777343zm0 0" fill="#f28f44"></path><path d="m119.625 66.523438 18.261719-3.566407c8-1.5625 8-13.011719 0-14.574219l-18.261719-3.570312c-10.394531-2.03125-18.519531-10.15625-20.550781-20.550781l-3.566407-18.261719c-1.5625-8-13.011718-8-14.574218 0l-3.570313 18.261719c-2.03125 10.394531-10.15625 18.519531-20.550781 20.550781l-18.261719 3.570312c-8 1.5625-8 13.007813 0 14.574219l18.261719 3.566407c10.394531 2.03125 18.519531 10.160156 20.550781 20.550781l3.570313 18.261719c1.5625 8.003906 13.011718 8.003906 14.574218 0l3.570313-18.261719c2.027344-10.390625 10.152344-18.519531 20.546875-20.550781zm0 0" fill="#ffee8c"></path><path d="m408.09375 304.191406c0 37.882813-30.710938 68.59375-68.609375 68.59375h-248.265625c-50.371094 0-91.21875-40.832031-91.21875-91.21875 0-50.375 40.847656-91.21875 91.21875-91.21875 4.519531 0 8.964844.347656 13.316406.976563 20.601563-40.910157 62.964844-68.980469 111.910156-68.980469 59.222657 0 108.835938 41.117188 121.867188 96.355469 1.300781 5.511719 2.238281 11.164062 2.78125 16.921875v.011718c37.136719.851563 67 31.214844 67 68.558594zm0 0" fill="#84abc1"></path><path d="m259.96875 130.125c-13.558594-5.035156-28.226562-7.777344-43.523438-7.777344-48.945312 0-91.296874 28.070313-111.910156 68.96875v.011719c-4.355468-.632813-8.796875-.980469-13.316406-.980469-50.386719.003906-91.21875 40.847656-91.21875 91.222656 0 50.386719 40.832031 91.21875 91.21875 91.21875h44.089844c-45.402344 0-82.191406-36.800781-82.191406-82.191406 0-40.277344 28.972656-73.796875 67.230468-80.828125 3.785156-.707031 7.660156-1.144531 11.613282-1.300781 1.105468-.039062 2.226562-.066406 3.347656-.066406 14.757812 0 28.613281 3.890625 40.574218 10.714844-1.660156-11.578126-13.632812-22.425782-31.28125-31.167969 9.691407-32.777344 42.675782-63.175781 115.367188-57.824219zm0 0" fill="#4d87a1"></path><path d="m512 436.441406c0 30.636719-24.835938 55.472656-55.484375 55.472656h-200.785156c-40.738281 0-73.769531-33.019531-73.769531-73.769531 0-40.742187 33.03125-73.773437 73.769531-73.773437 3.65625 0 7.25.28125 10.769531.789062 16.664062-33.082031 50.925781-55.785156 90.507812-55.785156 47.894532 0 88.019532 33.25 98.558594 77.925781 1.050782 4.457031 1.8125 9.03125 2.25 13.683594v.011719c30.035156.6875 54.183594 25.242187 54.183594 55.445312zm0 0" fill="#d3ddea"></path><path d="m392.207031 295.667969c-10.964843-4.074219-22.828125-6.289063-35.199219-6.289063-39.582031 0-73.835937 22.699219-90.507812 55.777344v.007812c-3.519531-.507812-7.113281-.789062-10.769531-.789062-40.75 0-73.769531 33.03125-73.769531 73.769531 0 40.75 33.019531 73.773438 73.769531 73.773438h35.660156c-36.71875 0-66.472656-29.761719-66.472656-66.472657 0-32.574218 23.429687-59.679687 54.371093-65.367187 3.0625-.574219 6.195313-.925781 9.394532-1.050781.894531-.03125 1.800781-.054688 2.707031-.054688 11.933594 0 23.140625 3.144532 32.8125 8.664063-1.34375-9.363281-11.023437-18.136719-25.300781-25.207031 7.839844-26.507813 34.515625-51.089844 93.304687-46.761719zm0 0" fill="#84abc1"></path></symbol><symbol id="clouds1" viewBox="0 -99 512 512"><path d="m512 228.148438c0 47.527343-38.53125 86.058593-86.078125 86.058593h-311.476563c-63.199218 0-114.44140575-51.226562-114.44140575-114.445312 0-63.199219 51.24218775-114.445313 114.44140575-114.445313 5.671876 0 11.246094.4375 16.707032 1.226563 25.847656-51.324219 79-86.542969 140.40625-86.542969 74.296875 0 136.546875 51.585938 152.894531 120.890625 1.632813 6.914063 2.8125 14.007813 3.492187 21.230469v.015625c46.589844 1.066406 84.054688 39.160156 84.054688 86.011719zm0 0" fill="#d3ddea"></path><path d="m326.164062 9.765625c-17.011718-6.316406-35.414062-9.7578125-54.605468-9.7578125-61.40625 0-114.542969 35.2187495-140.410156 86.5273435v.015625c-5.457032-.792969-11.03125-1.226562-16.703126-1.226562-63.214843 0-114.445312 51.246093-114.445312 114.445312 0 63.214844 51.230469 114.445313 114.445312 114.445313h55.316407c-56.964844 0-103.121094-46.171875-103.121094-103.121094 0-50.535156 36.351563-92.585938 84.347656-101.40625 4.75-.886719 9.613281-1.4375 14.570313-1.632812 1.390625-.046876 2.796875-.082032 4.203125-.082032 18.511719 0 35.894531 4.878906 50.90625 13.445313-2.085938-14.53125-17.105469-28.140625-39.25-39.105469 12.160156-41.125 53.542969-79.265625 144.746093-72.546875zm0 0" fill="#84abc1"></path></symbol><symbol id="mist" viewBox="0 -36 512 511"><path d="m447.996094 440.390625c-19.199219 0-28.914063-9.515625-37.484375-17.914063-7.664063-7.503906-13.71875-13.433593-26.519531-13.433593-12.800782 0-18.855469 5.929687-26.519532 13.433593-8.570312 8.398438-18.28125 17.914063-37.480468 17.914063-19.199219 0-28.914063-9.515625-37.484376-17.914063-7.664062-7.503906-13.714843-13.433593-26.515624-13.433593-12.800782 0-18.855469 5.929687-26.515626 13.433593-8.570312 8.394532-18.285156 17.914063-37.480468 17.914063-19.199219 0-28.914063-9.515625-37.484375-17.914063-7.664063-7.503906-13.714844-13.433593-26.515625-13.433593-12.800782 0-18.851563 5.929687-26.515625 13.433593-8.570313 8.398438-18.285157 17.914063-37.484375 17.914063-19.199219 0-28.910156-9.515625-37.484375-17.914063-7.660157-7.507812-13.710938-13.433593-26.511719-13.433593v-15.675781c19.199219 0 28.910156 9.519531 37.480469 17.914062 7.664062 7.507812 13.714843 13.433594 26.515625 13.433594 12.800781 0 18.855468-5.925782 26.515625-13.433594 8.570312-8.394531 18.285156-17.914062 37.484375-17.914062 19.199218 0 28.914062 9.519531 37.484375 17.914062 7.660156 7.507812 13.714843 13.433594 26.515625 13.433594 12.796875 0 18.851562-5.925782 26.511718-13.433594 8.570313-8.394531 18.285157-17.914062 37.484376-17.914062 19.199218 0 28.910156 9.519531 37.480468 17.914062 7.664063 7.507812 13.71875 13.433594 26.519532 13.433594 12.800781 0 18.851562-5.925782 26.515624-13.433594 8.570313-8.394531 18.285157-17.914062 37.484376-17.914062 19.199218 0 28.914062 9.519531 37.484374 17.914062 7.664063 7.507812 13.71875 13.433594 26.519532 13.433594 12.800781 0 18.855468-5.925782 26.519531-13.433594 8.570313-8.394531 18.285156-17.914062 37.484375-17.914062v15.675781c-12.800781 0-18.855469 5.929687-26.519531 13.433593-8.570313 8.398438-18.285157 17.914063-37.484375 17.914063zm0 0" fill="#84abc1"></path><path d="m447.996094 382.585938c-19.199219 0-28.914063-9.515626-37.484375-17.910157-7.664063-7.507812-13.71875-13.433593-26.519531-13.433593-12.800782 0-18.855469 5.925781-26.519532 13.433593-8.570312 8.394531-18.28125 17.910157-37.480468 17.910157-19.199219 0-28.914063-9.515626-37.484376-17.910157-7.664062-7.507812-13.714843-13.433593-26.515624-13.433593-12.800782 0-18.855469 5.925781-26.515626 13.433593-8.570312 8.394531-18.285156 17.910157-37.480468 17.910157-19.199219 0-28.914063-9.515626-37.484375-17.910157-7.664063-7.507812-13.714844-13.433593-26.515625-13.433593-12.800782 0-18.851563 5.925781-26.515625 13.433593-8.570313 8.394531-18.285157 17.910157-37.484375 17.910157-19.199219 0-28.910156-9.515626-37.484375-17.910157-7.660157-7.507812-13.710938-13.433593-26.511719-13.433593v-15.675782c19.199219 0 28.910156 9.515625 37.480469 17.914063 7.664062 7.503906 13.714843 13.433593 26.515625 13.433593 12.800781 0 18.855468-5.929687 26.515625-13.433593 8.570312-8.394531 18.285156-17.914063 37.484375-17.914063 19.199218 0 28.914062 9.515625 37.484375 17.914063 7.660156 7.507812 13.714843 13.433593 26.515625 13.433593 12.796875 0 18.851562-5.929687 26.511718-13.433593 8.570313-8.394531 18.285157-17.914063 37.484376-17.914063 19.199218 0 28.910156 9.515625 37.480468 17.914063 7.664063 7.503906 13.71875 13.433593 26.519532 13.433593 12.800781 0 18.851562-5.929687 26.515624-13.433593 8.570313-8.394531 18.285157-17.914063 37.484376-17.914063 19.199218 0 28.914062 9.515625 37.484374 17.914063 7.664063 7.503906 13.71875 13.433593 26.519532 13.433593 12.800781 0 18.855468-5.929687 26.519531-13.433593 8.570313-8.398438 18.285156-17.914063 37.484375-17.914063v15.675782c-12.800781 0-18.855469 5.925781-26.519531 13.433593-8.570313 8.394531-18.285157 17.910157-37.484375 17.910157zm0 0" fill="#84abc1"></path><g fill="#d3ddea"><path d="m506.164062 205.535156c-3.605468-3.605468-8.582031-5.832031-14.089843-5.832031h-44.945313c-10.992187 0-19.910156-8.917969-19.910156-19.917969 0-5.507812-2.226562-10.484375-5.835938-14.089844-3.605468-3.605468-8.589843-5.832031-14.085937-5.832031h-118.378906c-11 0-19.917969-8.917969-19.917969-19.917969 0-5.507812 2.226562-10.484374 5.832031-14.089843s8.589844-5.832031 14.085938-5.832031h162.5c11.003906 0 19.921875-8.917969 19.921875-19.917969 0-11.003907-8.917969-19.921875-19.921875-19.921875h-349.3125c-11 0-19.917969 8.917968-19.917969 19.921875 0 5.503906 2.226562 10.480469 5.832031 14.085937 3.605469 3.605469 8.582031 5.832032 14.085938 5.832032h21.839843c11.003907 0 19.921876 8.917968 19.921876 19.921874 0 5.503907-2.226563 10.480469-5.832032 14.085938-3.605468 3.605469-8.582031 5.832031-14.089844 5.832031h-70.097656c-10.992187 0-19.910156 8.917969-19.910156 19.921875 0 5.503906 2.226562 10.480469 5.832031 14.085938 3.605469 3.605468 8.582031 5.832031 14.078125 5.832031h105.730469c11 0 19.917969 8.917969 19.917969 19.921875 0 5.496094-2.226563 10.46875-5.832032 14.074219-3.605468 3.605469-8.582031 5.832031-14.085937 5.832031h-139.65625c-11 0-19.91796875 8.917969-19.91796875 19.921875 0 5.496094 2.22656275 10.480469 5.83203175 14.085937 3.605468 3.605469 8.589843 5.832032 14.085937 5.832032h317.398437c11.003907 0 19.921876-8.917969 19.921876-19.917969 0-5.496094 2.226562-10.480469 5.832031-14.085937 3.605469-3.609376 8.589843-5.835938 14.085937-5.835938h114.914063c11.003906 0 19.921875-8.917969 19.921875-19.910156 0-5.503906-2.226563-10.480469-5.832032-14.085938zm-207.777343 32.476563h-53.773438c-5.496093 0-10.46875-2.226563-14.078125-5.832031-3.605468-3.605469-5.832031-8.582032-5.832031-14.089844 0-11 8.917969-19.917969 19.910156-19.917969h53.777344c5.503906 0 10.480469 2.226563 14.085937 5.832031 3.605469 3.605469 5.832032 8.582032 5.832032 14.085938 0 11.003906-8.917969 19.921875-19.921875 19.921875zm0 0"></path><path d="m201.703125.5h-166.003906c-11.003907 0-19.921875 8.917969-19.921875 19.921875 0 11 8.917968 19.921875 19.921875 19.921875h166.003906c11 0 19.917969-8.921875 19.917969-19.921875 0-11.003906-8.917969-19.921875-19.917969-19.921875zm0 0"></path><path d="m380.316406.5h-102.820312c-11 0-19.917969 8.917969-19.917969 19.921875 0 11 8.917969 19.921875 19.917969 19.921875h102.820312c11.003906 0 19.921875-8.921875 19.921875-19.921875 0-11.003906-8.917969-19.921875-19.921875-19.921875zm0 0"></path></g></symbol><symbol id="moon" viewBox="0 0 512 512.00001"><path d="m509.53125 291.945312c-79.9375 79.933594-209.539062 79.933594-289.472656 0-79.9375-79.9375-79.9375-209.539062 0-289.476562.835937-.835938 1.683594-1.648438 2.53125-2.46875-53.863282 7.269531-105.867188 31.585938-147.265625 72.984375-100.429688 100.429687-100.429688 263.261719 0 363.691406 100.429687 100.429688 263.261719 100.429688 363.691406 0 41.398437-41.398437 65.714844-93.402343 72.984375-147.265625-.820312.847656-1.632812 1.695313-2.46875 2.535156zm0 0" fill="#ffd073"></path><path d="m368.015625 486.964844c-95.585937 45.640625-213.523437 28.875-292.691406-50.289063-100.433594-100.433593-100.433594-263.257812 0-363.691406 38.574219-38.574219 86.367187-62.328125 136.277343-71.25-25.664062 12.238281-49.722656 29.003906-70.976562 50.257813-100.433594 100.433593-100.433594 263.257812 0 363.691406 61.847656 61.84375 147.363281 85.609375 227.390625 71.28125zm0 0" fill="#f28f44"></path><path d="m355.84375 117.804688 28.492188-5.566407c12.484374-2.441406 12.484374-20.300781 0-22.738281l-28.492188-5.570312c-16.21875-3.167969-28.898438-15.847657-32.066406-32.066407l-5.570313-28.492187c-2.4375-12.484375-20.300781-12.484375-22.738281 0l-5.570312 28.492187c-3.167969 16.21875-15.847657 28.898438-32.0625 32.066407l-28.496094 5.570312c-12.484375 2.4375-12.484375 20.296875 0 22.738281l28.496094 5.566407c16.214843 3.167968 28.894531 15.847656 32.0625 32.066406l5.570312 28.496094c2.4375 12.484374 20.300781 12.484374 22.738281 0l5.570313-28.496094c3.167968-16.214844 15.847656-28.898438 32.066406-32.066406zm0 0" fill="#ffee8c"></path><path d="m424.875 251.722656 18.40625-3.597656c8.066406-1.574219 8.066406-13.113281 0-14.6875l-18.40625-3.597656c-10.476562-2.046875-18.667969-10.238282-20.714844-20.714844l-3.597656-18.40625c-1.574219-8.066406-13.113281-8.066406-14.6875 0l-3.597656 18.40625c-2.046875 10.476562-10.238282 18.667969-20.714844 20.714844l-18.40625 3.597656c-8.066406 1.574219-8.066406 13.113281 0 14.6875l18.40625 3.597656c10.476562 2.046875 18.667969 10.238282 20.714844 20.714844l3.597656 18.40625c1.574219 8.066406 13.113281 8.066406 14.6875 0l3.597656-18.40625c2.046875-10.476562 10.238282-18.664062 20.714844-20.714844zm0 0" fill="#ffee8c"></path><g fill="#cc9236"><path d="m80.242188 257.46875c-3.292969 0-6.363282-2.078125-7.464844-5.375l-2.980469-8.90625c-1.378906-4.121094.84375-8.582031 4.964844-9.964844 4.125-1.378906 8.585937.84375 9.964843 4.96875l2.980469 8.90625c1.378907 4.121094-.84375 8.582032-4.964843 9.964844-.828126.277344-1.671876.40625-2.5.40625zm0 0"></path><path d="m123.632812 242.949219c-3.292968 0-6.363281-2.082031-7.464843-5.378907l-2.980469-8.90625c-1.378906-4.121093.84375-8.582031 4.964844-9.964843 4.125-1.378907 8.585937.847656 9.964844 4.96875l2.980468 8.90625c1.378906 4.121093-.84375 8.582031-4.964844 9.964843-.828124.277344-1.671874.410157-2.5.410157zm0 0"></path><path d="m105.152344 300.09375c-9.335938 0-18.613282-2.167969-27.214844-6.453125-3.890625-1.9375-5.472656-6.664063-3.535156-10.558594 1.941406-3.890625 6.667968-5.472656 10.558594-3.53125 22.402343 11.164063 49.707031 2.023438 60.875-20.375 1.9375-3.894531 6.667968-5.476562 10.554687-3.535156 3.894531 1.9375 5.476563 6.664063 3.535156 10.558594-7.285156 14.613281-19.824219 25.515625-35.308593 30.699219-6.375 2.132812-12.933594 3.195312-19.464844 3.195312zm0 0"></path></g></symbol><symbol id="loupe" version="1.1" xmlns:xlink="http://www.w3.org/1999/xlink" x="0px" y="0px" viewBox="0 0 512 512" style="enable-background:new 0 0 512 512;" xml:space="preserve"><path d="M460.2,51.8c-69.1-69.1-181.5-69.1-250.5,0c-61.4,61.4-69,157.9-19.2,227.9l-40,40l-7.7-7.7c-3.7-3.7-9.6-3.7-13.2,0
	l-115,115c-2.9,2.9-5.4,6.2-7.6,9.7c-11.7,19.6-8.6,44.6,7.6,60.7C24.2,507,37,512,49.8,512c8.7,0,17.5-2.3,25.5-7
	c3.5-2.1,6.8-4.6,9.7-7.6l58.7-58.7c3.7-3.7,3.7-9.6,0-13.2c-3.7-3.7-9.6-3.7-13.2,0l-58.7,58.7c-0.1,0.1-0.3,0.2-0.4,0.4
	l-43.9-43.9c0.1-0.1,0.2-0.3,0.4-0.4l108.3-108.3l43.9,43.9l-29.7,29.7c-3.7,3.7-3.7,9.6,0,13.2c3.7,3.7,9.6,3.7,13.2,0l36.3-36.3
	c1.8-1.8,2.7-4.1,2.7-6.6s-1-4.9-2.7-6.6l-7.7-7.7l40-40c30.8,21.9,66.7,32.7,102.5,32.7c45.6,0,91-17.5,125.4-51.9
	C529.3,233.2,529.3,120.9,460.2,51.8z M53.4,493c-9.2,1.1-18.6-2-25.5-8.9c-6.9-6.9-10-16.4-8.9-25.5L53.4,493z M179.1,348.3
	l-15.3-15.3l38.5-38.5c2.4,2.7,4.9,5.3,7.4,7.9c2.6,2.6,5.2,5,7.9,7.4L179.1,348.3z M447,289.1c-56.7,56.7-146.9,62.1-209.8,12.6
	c-4.9-3.9-9.7-8.1-14.2-12.6c-4.5-4.5-8.8-9.3-12.6-14.2c0,0,0,0,0,0c-49.5-62.9-44-153.1,12.6-209.8c30.9-30.9,71.4-46.3,112-46.3
	s81.1,15.4,112,46.3C508.7,126.8,508.7,227.3,447,289.1z M423.8,88.2c-3.7-3.7-9.6-3.7-13.2,0c-3.7,3.7-3.7,9.6,0,13.2
	c20.2,20.2,31.3,47,31.3,75.6s-11.1,55.4-31.3,75.6c-41.7,41.7-109.5,41.7-151.2,0c-20.2-20.2-31.3-47-31.3-75.6
	s11.1-55.4,31.3-75.6c34.7-34.7,88.2-41.4,130.3-16.3c4.4,2.7,10.2,1.2,12.8-3.2s1.2-10.2-3.2-12.8
	c-49.4-29.5-112.4-21.6-153.1,19.1c-23.7,23.7-36.8,55.3-36.8,88.8s13.1,65.1,36.8,88.8c24.5,24.5,56.7,36.7,88.8,36.7
	c32.2,0,64.3-12.2,88.8-36.7c23.7-23.7,36.8-55.3,36.8-88.8S447.5,112,423.8,88.2z"></path></symbol><symbol id="logo" viewBox="-39 0 512 512"><path d="m187.242188 351.304688c-.675782 0-1.351563-.085938-2.015626-.261719l-145.199218-38.597657c-3.4375-.917968-5.832032-4.03125-5.832032-7.589843v-156.859375c0-3.558594 2.394532-6.671875 5.832032-7.585938l145.199218-38.601562c2.355469-.625 4.867188-.121094 6.800782 1.363281 1.933594 1.488281 3.066406 3.789063 3.066406 6.226563v234.054687c0 2.4375-1.132812 4.738281-3.066406 6.226563-1.386719 1.066406-3.074219 1.625-4.785156 1.625zm-137.347657-52.484376 129.496094 34.421876v-213.632813l-129.496094 34.421875zm0 0" fill="#d3ddea"></path><path d="m433.894531 133.511719v185.828125l-262.074219 45.734375v-277.292969zm0 0" fill="#ff7694"></path><path d="m433.894531 268.382812v50.957032l-262.074219 45.734375v-70.523438zm0 0" fill="#e53737"></path><path d="m349.710938 118.828125v215.195313l-93.707032 16.363281v-247.910157zm0 0" fill="#d3ddea"></path><path d="m349.710938 276.785156v57.238282l-93.707032 16.363281v-64.242188zm0 0" fill="#84abc1"></path><path d="m57.460938 74.378906v437.621094h-38.09375v-438.6875" fill="#84abc1"></path><path d="m37.816406 74.378906v437.621094h-18.449218v-438.6875" fill="#4d87a1"></path><path d="m78.769531 39.386719c0 21.75-17.632812 39.382812-39.382812 39.382812-21.753907 0-39.386719-17.632812-39.386719-39.382812 0-21.753907 17.632812-39.386719 39.386719-39.386719 21.75 0 39.382812 17.632812 39.382812 39.386719zm0 0" fill="#e53737"></path><path d="m78.773438 39.386719c0 16.769531-10.488282 31.089843-25.257813 36.773437-14.773437-5.683594-25.25-20.003906-25.25-36.773437s10.476563-31.101563 25.25-36.785157c14.769531 5.683594 25.257813 20.015626 25.257813 36.785157zm0 0" fill="#ff7694"></path></symbol><symbol id="pressure" version="1.1" xmlns:xlink="http://www.w3.org/1999/xlink" x="0px" y="0px" viewBox="0 0 512 512" style="enable-background:new 0 0 512 512;" xml:space="preserve"><path fill="#84ABC1" d="M256,91.8c-90.7,0-164.2,73.5-164.2,164.2S165.3,420.2,256,420.2S420.2,346.7,420.2,256
		C420,165.4,346.6,92,256,91.8z"></path><path fill="#D3DDEA" d="M420.5,256c0,85.7-64.4,156.3-147.5,166.2C190,412.3,125.6,341.7,125.6,256S190,99.7,273.1,89.8
		C356.1,99.7,420.5,170.3,420.5,256z"></path><path fill="#E53737" d="M367.1,376.8c-62.8,57.8-159.5,57.8-222.3,0C207.7,319,304.3,319,367.1,376.8z"></path><path fill="#FF7694" d="M260.1,420.1c38.5-1,76.7-15.4,107.1-43.3c-56.9-52.4-141.6-57.3-203.7-14.8
		C187.5,391.4,221.4,412.4,260.1,420.1z"></path><path fill="#FF7694" d="M269.5,279.4c-10.9,10.1-29.4,3-36.8-9.9c-7.5-12.9-4.4-32.4,9.9-36.8l116.2-35.9L269.5,279.4z"></path><path fill="#4D87A1" d="M256,57C146.1,57,57,146.1,57,256s89.1,199,199,199s199-89.1,199-199C454.8,146.2,365.8,57.2,256,57z
		 M256,420.1c-88-0.2-160.3-69.6-164-157.5h17.6c3.6,0,6.6-2.9,6.6-6.6s-2.9-6.6-6.6-6.6H92c1-24.3,7.4-48.1,18.7-69.7l15.4,8.8
		c3.2,1.8,7.2,0.7,9-2.4c1.8-3.2,0.7-7.2-2.4-9l-15.3-8.8c13-20.5,30.3-37.9,50.8-50.9l8.8,15.3c1.8,3.2,5.8,4.2,9,2.4
		c3.2-1.8,4.2-5.8,2.4-9l-8.8-15.3C201.2,99.4,225,93,249.4,92v17.6c-0.1,3.6,2.7,6.7,6.4,6.8c0.1,0,0.1,0,0.2,0
		c3.6,0,6.6-2.9,6.6-6.6V92.2c24.3,1,48.1,7.4,69.7,18.7l-8.8,15.4c-1.8,3.2-0.7,7.2,2.4,9c3.2,1.8,7.2,0.7,9-2.4l8.8-15.3
		c20.5,12.9,37.8,30.2,50.9,50.5l-15.3,8.8c-3.2,1.8-4.2,5.8-2.4,9c1.8,3.2,5.8,4.2,9,2.4l15.3-8.8c11.4,21.5,17.8,45.3,18.7,69.7
		h-17.6c-3.6,0-6.6,2.9-6.6,6.6s3,6.6,6.6,6.6h17.6C416.3,350.4,344,420,256,420.1L256,420.1z"></path><path fill="#D3DDEA" d="M270,256c0,7.8-6.3,14-14,14s-14-6.3-14-14s6.3-14,14-14S270,248.2,270,256z"></path></symbol><symbol id="snow" viewBox="-2 1 511 511.99897"><path d="m404.480469 180.015625c0 37.5-30.402344 67.902344-67.914063 67.902344h-245.765625c-49.867187 0-90.300781-40.417969-90.300781-90.300781 0-49.863282 40.433594-90.300782 90.300781-90.300782 4.472657 0 8.871094.34375 13.179688.96875 20.394531-40.496094 62.335937-68.285156 110.785156-68.285156 58.625 0 107.738281 40.703125 120.640625 95.386719 1.285156 5.457031 2.214844 11.050781 2.753906 16.75v.011719c36.761719.839843 66.320313 30.898437 66.320313 67.867187zm0 0" fill="#84abc1"></path><path d="m257.851562 7.703125c-13.421874-4.984375-27.941406-7.69921875-43.085937-7.69921875-48.453125 0-90.378906 27.78906275-110.785156 68.27343775v.011718c-4.308594-.621093-8.707031-.96875-13.179688-.96875-49.878906 0-90.300781 40.433594-90.300781 90.300782 0 49.882812 40.421875 90.300781 90.300781 90.300781h43.644531c-44.945312 0-81.363281-36.429687-81.363281-81.363281 0-39.871094 28.679688-73.054688 66.550781-80.011719 3.75-.703125 7.585938-1.136719 11.5-1.289063 1.09375-.039062 2.203126-.0625 3.3125-.0625 14.609376 0 28.324219 3.847657 40.167969 10.605469-1.644531-11.464843-13.496093-22.203125-30.96875-30.855469 9.59375-32.449218 42.246094-62.542968 114.207031-57.242187zm0 0" fill="#4d87a1"></path><path d="m262.152344 255.304688c.488281.085937.777344.085937.824218.085937h-3.757812c.980469 0 1.957031-.03125 2.933594-.085937zm0 0" fill="#84abc1"></path><path d="m507.34375 310.933594c0 30.328125-24.585938 54.917968-54.925781 54.917968h-198.761719c-40.328125 0-73.03125-32.691406-73.03125-73.03125 0-40.328124 32.703125-73.03125 73.03125-73.03125 3.617188 0 7.175781.28125 10.660156.785157 16.496094-32.753907 50.410156-55.226563 89.597656-55.226563 47.410157 0 87.132813 32.917969 97.566407 77.144532 1.039062 4.410156 1.792969 8.9375 2.226562 13.546874v.007813c29.730469.679687 53.636719 24.992187 53.636719 54.886719zm0 0" fill="#d3ddea"></path><path d="m388.757812 171.578125c-10.855468-4.03125-22.597656-6.226563-34.847656-6.226563-39.183594 0-73.089844 22.476563-89.59375 55.214844v.011719c-3.484375-.503906-7.042968-.785156-10.660156-.785156-40.339844 0-73.03125 32.703125-73.03125 73.03125 0 40.339843 32.691406 73.03125 73.03125 73.03125h35.296875c-36.347656 0-65.800781-29.464844-65.800781-65.804688 0-32.246093 23.195312-59.082031 53.824218-64.710937 3.027344-.566406 6.132813-.917969 9.296876-1.039063.886718-.03125 1.785156-.050781 2.679687-.050781 11.816406 0 22.90625 3.113281 32.484375 8.574219-1.328125-9.269531-10.914062-17.953125-25.046875-24.953125 7.761719-26.242188 34.167969-50.578125 92.367187-46.292969zm0 0" fill="#84abc1"></path><g fill="#d3ddea"><path d="m104.035156 322.191406c-2.136718-3.699218-6.863281-4.964844-10.5625-2.832031l-15.855468 9.15625v-18.308594c0-4.269531-3.460938-7.730469-7.730469-7.730469s-7.734375 3.460938-7.734375 7.730469v18.308594l-15.851563-9.15625c-3.699219-2.136719-8.425781-.867187-10.5625 2.832031-2.136719 3.695313-.867187 8.425782 2.828125 10.5625l15.855469 9.152344-15.855469 9.152344c-3.695312 2.136718-4.964844 6.863281-2.828125 10.5625 1.433594 2.480468 4.03125 3.867187 6.703125 3.867187 1.3125 0 2.640625-.335937 3.859375-1.039062l15.851563-9.152344v18.308594c0 4.269531 3.464844 7.730469 7.734375 7.730469s7.730469-3.460938 7.730469-7.730469v-18.308594l15.855468 9.152344c1.21875.703125 2.546875 1.039062 3.859375 1.039062 2.671875 0 5.269531-1.386719 6.703125-3.867187 2.132813-3.699219.867188-8.425782-2.832031-10.5625l-15.851563-9.152344 15.851563-9.152344c3.699219-2.136718 4.96875-6.867187 2.832031-10.5625zm0 0"></path><path d="m104.035156 452.855469c-2.136718-3.699219-6.863281-4.96875-10.5625-2.832031l-15.855468 9.15625v-18.308594c0-4.269532-3.460938-7.734375-7.730469-7.734375s-7.734375 3.464843-7.734375 7.734375v18.304687l-15.851563-9.152343c-3.699219-2.136719-8.425781-.867188-10.5625 2.828124-2.136719 3.699219-.867187 8.429688 2.828125 10.5625l15.855469 9.15625-15.855469 9.152344c-3.695312 2.132813-4.964844 6.863282-2.828125 10.5625 1.433594 2.480469 4.03125 3.867188 6.703125 3.867188 1.3125 0 2.640625-.335938 3.859375-1.039063l15.851563-9.152343v18.304687c0 4.273437 3.464844 7.734375 7.734375 7.734375s7.730469-3.460938 7.730469-7.734375v-18.304687l15.855468 9.152343c1.21875.703125 2.546875 1.039063 3.859375 1.039063 2.671875 0 5.269531-1.390625 6.703125-3.867188 2.132813-3.699218.867188-8.429687-2.832031-10.5625l-15.851563-9.152344 15.851563-9.15625c3.699219-2.132812 4.96875-6.863281 2.832031-10.558593zm0 0"></path><path d="m227.59375 416.769531c-2.136719-3.699219-6.863281-4.964843-10.5625-2.828125l-15.851562 9.152344v-18.308594c0-4.269531-3.464844-7.730468-7.734376-7.730468-4.269531 0-7.730468 3.460937-7.730468 7.730468v18.308594l-15.855469-9.152344c-3.699219-2.136718-8.425781-.871094-10.5625 2.828125-2.132813 3.699219-.867187 8.425781 2.832031 10.5625l15.855469 9.152344-15.855469 9.152344c-3.699218 2.136719-4.964844 6.863281-2.832031 10.5625 1.433594 2.480469 4.03125 3.867187 6.703125 3.867187 1.3125 0 2.640625-.332031 3.859375-1.035156l15.855469-9.15625v18.308594c0 4.269531 3.460937 7.730468 7.730468 7.730468 4.269532 0 7.734376-3.460937 7.734376-7.730468v-18.304688l15.851562 9.152344c1.21875.703125 2.546875 1.035156 3.859375 1.035156 2.671875 0 5.273437-1.386718 6.703125-3.867187 2.136719-3.695313.867188-8.425781-2.828125-10.558594l-15.855469-9.15625 15.855469-9.152344c3.695313-2.136719 4.964844-6.863281 2.828125-10.5625zm0 0"></path><path d="m351.152344 452.855469c-2.132813-3.699219-6.863282-4.96875-10.5625-2.832031l-15.851563 9.15625v-18.308594c0-4.269532-3.460937-7.734375-7.734375-7.734375-4.269531 0-7.730468 3.464843-7.730468 7.734375v18.304687l-15.855469-9.152343c-3.699219-2.136719-8.425781-.867188-10.5625 2.828124-2.132813 3.699219-.867188 8.429688 2.832031 10.5625l15.855469 9.15625-15.855469 9.152344c-3.699219 2.132813-4.964844 6.863282-2.832031 10.5625 1.433593 2.480469 4.03125 3.867188 6.703125 3.867188 1.3125 0 2.644531-.335938 3.859375-1.039063l15.855469-9.152343v18.304687c0 4.273437 3.460937 7.734375 7.730468 7.734375 4.273438 0 7.734375-3.460938 7.734375-7.734375v-18.304687l15.851563 9.152343c1.21875.703125 2.550781 1.039063 3.859375 1.039063 2.671875 0 5.273437-1.390625 6.703125-3.867188 2.136718-3.699218.867187-8.429687-2.828125-10.5625l-15.855469-9.152344 15.855469-9.15625c3.695312-2.132812 4.964843-6.863281 2.828125-10.558593zm0 0"></path><path d="m471.882812 445.640625-15.855468-9.15625 15.855468-9.152344c3.699219-2.136719 4.964844-6.863281 2.832032-10.5625-2.136719-3.695312-6.867188-4.964843-10.5625-2.828125l-15.855469 9.152344v-18.308594c0-4.269531-3.460937-7.730468-7.730469-7.730468-4.273437 0-7.734375 3.460937-7.734375 7.730468v18.308594l-15.851562-9.152344c-3.703125-2.136718-8.429688-.867187-10.5625 2.828125-2.136719 3.699219-.867188 8.425781 2.828125 10.5625l15.855468 9.152344-15.855468 9.15625c-3.695313 2.132813-4.964844 6.863281-2.828125 10.558594 1.429687 2.480469 4.03125 3.867187 6.703125 3.867187 1.3125 0 2.640625-.332031 3.859375-1.035156l15.851562-9.152344v18.304688c0 4.269531 3.460938 7.730468 7.734375 7.730468 4.269532 0 7.730469-3.460937 7.730469-7.730468v-18.304688l15.855469 9.152344c1.21875.703125 2.546875 1.035156 3.859375 1.035156 2.671875 0 5.269531-1.386718 6.703125-3.867187 2.132812-3.699219.867187-8.425781-2.832032-10.558594zm0 0"></path></g></symbol><symbol id="rain2" viewBox="0 0 511.99979 511"><path d="m409.640625 179.636719c0 37.320312-30.253906 67.574219-67.585937 67.574219h-244.566407c-49.621093 0-89.859375-40.226563-89.859375-89.863282 0-49.621094 40.238282-89.859375 89.859375-89.859375 4.453125 0 8.828125.34375 13.117188.964844 20.296875-40.300781 62.027343-67.953125 110.246093-67.953125 58.335938 0 107.210938 40.503906 120.046876 94.921875 1.28125 5.429687 2.207031 10.996094 2.742187 16.667969v.011718c36.582031.839844 66 30.75 66 67.535157zm0 0" fill="#84abc1"></path><path d="m263.722656 8.167969c-13.355468-4.960938-27.804687-7.664063-42.875-7.664063-48.214844 0-89.933594 27.65625-110.242187 67.941406v.011719c-4.289063-.621093-8.664063-.964843-13.117188-.964843-49.636719 0-89.859375 40.238281-89.859375 89.859374 0 49.636719 40.222656 89.863282 89.859375 89.863282h43.433594c-44.726563 0-80.96875-36.253906-80.96875-80.96875 0-39.679688 28.542969-72.699219 66.226563-79.625 3.730468-.695313 7.550781-1.125 11.445312-1.28125 1.089844-.035156 2.191406-.0625 3.296875-.0625 14.535156 0 28.1875 3.832031 39.96875 10.554687-1.636719-11.40625-13.429687-22.09375-30.816406-30.703125 9.546875-32.292968 42.039062-62.238281 113.648437-56.960937zm0 0" fill="#4d87a1"></path><path d="m512 309.917969c0 30.179687-24.46875 54.648437-54.660156 54.648437h-197.789063c-40.132812 0-72.675781-32.53125-72.675781-72.675781 0-40.132813 32.542969-72.671875 72.675781-72.671875 3.601563 0 7.140625.277344 10.605469.777344 16.414062-32.589844 50.167969-54.953125 89.160156-54.953125 47.179688 0 86.707032 32.753906 97.089844 76.765625 1.035156 4.390625 1.785156 8.894531 2.21875 13.480468v.007813c29.585938.679687 53.375 24.867187 53.375 54.621094zm0 0" fill="#d3ddea"></path><path d="m393.992188 171.242188c-10.800782-4.011719-22.488282-6.195313-34.675782-6.195313-38.992187 0-72.734375 22.363281-89.160156 54.945313v.011718c-3.464844-.503906-7.003906-.78125-10.605469-.78125-40.144531 0-72.675781 32.539063-72.675781 72.671875 0 40.144531 32.53125 72.675781 72.675781 72.675781h35.125c-36.171875 0-65.480469-29.320312-65.480469-65.484374 0-32.089844 23.082032-58.792969 53.558594-64.394532 3.019532-.5625 6.105469-.910156 9.253906-1.035156.882813-.03125 1.777344-.050781 2.667969-.050781 11.757813 0 22.796875 3.097656 32.328125 8.535156-1.324218-9.226563-10.863281-17.867187-24.925781-24.832031 7.722656-26.113282 34-50.332032 91.914063-46.066406zm0 0" fill="#84abc1"></path><g fill="#d3ddea"><path d="m331.871094 511.03125c-1.839844 0-3.6875-.65625-5.15625-1.988281-3.152344-2.847657-3.398438-7.714844-.546875-10.867188l102.328125-113.183593c2.851562-3.152344 7.71875-3.398438 10.871094-.550782 3.152343 2.851563 3.394531 7.71875.546874 10.867188l-102.332031 113.1875c-1.519531 1.679687-3.613281 2.535156-5.710937 2.535156zm0 0"></path><path d="m260.070312 511.03125c-1.839843 0-3.6875-.65625-5.160156-1.988281-3.152344-2.847657-3.398437-7.714844-.546875-10.867188l102.28125-113.125c2.847657-3.152343 7.714844-3.394531 10.867188-.546875 3.152343 2.851563 3.394531 7.714844.546875 10.867188l-102.28125 113.125c-1.515625 1.679687-3.609375 2.535156-5.707032 2.535156zm0 0"></path><path d="m188.257812 511.03125c-1.839843 0-3.6875-.65625-5.160156-1.988281-3.152344-2.847657-3.394531-7.714844-.546875-10.867188l102.292969-113.125c2.851562-3.148437 7.714844-3.394531 10.867188-.546875 3.152343 2.851563 3.394531 7.71875.546874 10.867188l-102.292968 113.125c-1.515625 1.679687-3.609375 2.535156-5.707032 2.535156zm0 0"></path><path d="m116.457031 511.03125c-1.839843 0-3.6875-.65625-5.15625-1.988281-3.15625-2.847657-3.398437-7.714844-.550781-10.867188l103.492188-114.46875c2.847656-3.152343 7.714843-3.394531 10.867187-.546875 3.152344 2.851563 3.398437 7.714844.546875 10.867188l-103.488281 114.46875c-1.519531 1.679687-3.613281 2.535156-5.710938 2.535156zm0 0"></path><path d="m44.652344 511.03125c-1.839844 0-3.683594-.65625-5.15625-1.988281-3.152344-2.847657-3.398438-7.714844-.546875-10.867188l129.96875-143.746093c2.847656-3.152344 7.714843-3.398438 10.867187-.546876 3.152344 2.851563 3.398438 7.714844.546875 10.867188l-129.96875 143.746094c-1.519531 1.679687-3.609375 2.535156-5.710937 2.535156zm0 0"></path><path d="m7.691406 472.5c-1.839844 0-3.683594-.65625-5.15625-1.988281-3.152344-2.851563-3.398437-7.714844-.546875-10.867188l159.75-176.679687c2.847657-3.152344 7.714844-3.398438 10.867188-.546875 3.152343 2.851562 3.394531 7.71875.546875 10.867187l-159.75 176.679688c-1.519532 1.679687-3.613282 2.535156-5.710938 2.535156zm0 0"></path><path d="m7.691406 393.074219c-1.839844 0-3.683594-.65625-5.15625-1.988281-3.152344-2.847657-3.398437-7.714844-.546875-10.867188l101.734375-112.515625c2.851563-3.152344 7.714844-3.398437 10.867188-.546875 3.152344 2.847656 3.398437 7.714844.546875 10.867188l-101.734375 112.515624c-1.519532 1.683594-3.613282 2.535157-5.710938 2.535157zm0 0"></path></g></symbol><symbol id="cloudy2" viewBox="0 -1 512 512"><path d="m488.171875 166.226562c0-14.125 25.589844-31.417968 22.109375-44.445312-3.601562-13.476562-34.515625-15.648438-41.34375-27.449219-6.921875-11.972656 6.578125-39.808593-3.136719-49.523437-9.714843-9.71875-37.554687 3.785156-49.523437-3.140625-11.800782-6.828125-13.972656-37.742188-27.453125-41.34375-13.027344-3.480469-30.320313 22.109375-44.445313 22.109375s-31.417968-25.589844-44.445312-22.109375c-13.476563 3.601562-15.648438 34.515625-27.449219 41.34375-11.972656 6.925781-39.808594-6.574219-49.523437 3.140625-9.714844 9.714844 3.785156 37.550781-3.140626 49.523437-6.828124 11.800781-37.742187 13.972657-41.34375 27.449219-3.480468 13.027344 22.109376 30.320312 22.109376 44.445312s-25.589844 31.421876-22.109376 44.445313c3.601563 13.480469 34.515626 15.652344 41.34375 27.453125 6.925782 11.96875-6.574218 39.808594 3.140626 49.523438 9.714843 9.714843 37.550781-3.789063 49.523437 3.136718 11.800781 6.828125 13.96875 37.742188 27.449219 41.34375 13.027344 3.480469 30.320312-22.109375 44.445312-22.109375s31.417969 25.589844 44.445313 22.109375c13.480469-3.601562 15.648437-34.515625 27.453125-41.34375 11.96875-6.925781 39.808594 6.578125 49.523437-3.136718 9.714844-9.71875-3.789062-37.554688 3.136719-49.527344 6.828125-11.796875 37.742188-13.96875 41.34375-27.449219 3.484375-13.027344-22.109375-30.320313-22.109375-44.445313zm0 0" fill="#ffee8c"></path><path d="m455.386719 166.226562c0 56.070313-41.570313 102.429688-95.574219 109.941407-5.042969.703125-10.191406 1.0625-15.429688 1.0625-61.308593 0-111.011718-49.699219-111.011718-111.003907 0-61.308593 49.703125-111.007812 111.011718-111.007812 5.238282 0 10.386719.359375 15.429688 1.066406 54.003906 7.511719 95.574219 53.871094 95.574219 109.941406zm0 0" fill="#f28f44"></path><path d="m455.386719 166.226562c0 56.070313-41.570313 102.429688-95.574219 109.941407-54.007812-7.511719-95.578125-53.875-95.578125-109.941407 0-56.070312 41.570313-102.429687 95.578125-109.941406 54.003906 7.511719 95.574219 53.871094 95.574219 109.941406zm0 0" fill="#ffd073"></path><path d="m408.09375 321.625c0 37.882812-30.710938 68.59375-68.609375 68.59375h-248.265625c-50.371094 0-91.21875-40.832031-91.21875-91.21875 0-50.375 40.847656-91.21875 91.21875-91.21875 4.519531 0 8.964844.347656 13.316406.976562 20.601563-40.910156 62.964844-68.980468 111.910156-68.980468 59.222657 0 108.835938 41.117187 121.867188 96.355468 1.300781 5.511719 2.238281 11.164063 2.78125 16.921876v.011718c37.136719.851563 67 31.214844 67 68.558594zm0 0" fill="#d3ddea"></path><path d="m259.96875 147.558594c-13.558594-5.035156-28.226562-7.777344-43.523438-7.777344-48.945312 0-91.296874 28.074219-111.910156 68.96875v.011719c-4.355468-.628907-8.796875-.976563-13.316406-.976563-50.386719 0-91.21875 40.84375-91.21875 91.21875 0 50.386719 40.832031 91.21875 91.21875 91.21875h44.089844c-45.402344 0-82.191406-36.800781-82.191406-82.191406 0-40.28125 28.972656-73.796875 67.230468-80.828125 3.785156-.707031 7.660156-1.144531 11.613282-1.300781 1.105468-.039063 2.226562-.066406 3.347656-.066406 14.757812 0 28.613281 3.890624 40.574218 10.714843-1.660156-11.578125-13.632812-22.425781-31.28125-31.167969 9.691407-32.777343 42.675782-63.175781 115.367188-57.824218zm0 0" fill="#84abc1"></path><path d="m264.3125 385.703125c.496094.085937.789062.085937.835938.085937h-3.796876c.992188 0 1.976563-.03125 2.960938-.085937zm0 0" fill="#84abc1"></path><path d="m512 453.875c0 30.636719-24.835938 55.476562-55.484375 55.476562h-200.785156c-40.738281 0-73.769531-33.023437-73.769531-73.773437 0-40.738281 33.03125-73.773437 73.769531-73.773437 3.65625 0 7.25.28125 10.769531.792968 16.664062-33.085937 50.925781-55.789062 90.507812-55.789062 47.894532 0 88.019532 33.25 98.558594 77.929687 1.050782 4.457031 1.8125 9.027344 2.25 13.683594v.007813c30.035156.6875 54.183594 25.246093 54.183594 55.445312zm0 0" fill="#d3ddea"></path><path d="m392.207031 313.101562c-10.964843-4.070312-22.828125-6.289062-35.199219-6.289062-39.582031 0-73.835937 22.703125-90.507812 55.777344v.007812c-3.519531-.507812-7.113281-.789062-10.769531-.789062-40.75 0-73.769531 33.03125-73.769531 73.773437 0 40.75 33.019531 73.769531 73.769531 73.769531h35.660156c-36.71875 0-66.472656-29.761718-66.472656-66.472656 0-32.574218 23.429687-59.679687 54.371093-65.367187 3.0625-.574219 6.195313-.925781 9.394532-1.050781.894531-.03125 1.800781-.050782 2.707031-.050782 11.933594 0 23.140625 3.144532 32.8125 8.664063-1.34375-9.367188-11.023437-18.140625-25.300781-25.210938 7.839844-26.507812 34.515625-51.089843 93.304687-46.761719zm0 0" fill="#84abc1"></path><g fill="#cc9236"><path d="m353.96875 150.019531c-3.164062 0-5.726562-2.5625-5.726562-5.726562v-6.875c0-3.164063 2.5625-5.726563 5.726562-5.726563s5.726562 2.5625 5.726562 5.726563v6.875c0 3.164062-2.5625 5.726562-5.726562 5.726562zm0 0"></path><path d="m402.042969 150.019531c-3.160157 0-5.726563-2.5625-5.726563-5.726562v-6.875c0-3.164063 2.566406-5.726563 5.726563-5.726563 3.164062 0 5.730469 2.5625 5.730469 5.726563v6.875c0 3.164062-2.566407 5.726562-5.730469 5.726562zm0 0"></path><path d="m379.332031 189.8125c-9.730469 0-18.875-3.789062-25.753906-10.667969-2.234375-2.238281-2.234375-5.863281.003906-8.101562 2.234375-2.238281 5.863281-2.234375 8.097657 0 4.714843 4.714843 10.984374 7.3125 17.648437 7.3125 6.667969 0 12.9375-2.597657 17.652344-7.3125 2.234375-2.234375 5.863281-2.234375 8.101562 0 2.234375 2.238281 2.234375 5.863281 0 8.101562-6.878906 6.878907-16.023437 10.667969-25.75 10.667969zm0 0"></path></g></symbol><symbol id="rain1" viewBox="0 -7 512 512"><path d="m21.316406 398.5625c-12.738281 7.371094-21.316406 21.136719-21.316406 36.914062 0 .566407.0117188 1.125.03125 1.683594 1.042969 26.796875 41.527344 26.796875 42.566406 0 .023438-.558594.035156-1.117187.035156-1.683594 0-15.777343-8.578124-29.542968-21.316406-36.914062zm0 0" fill="#84abc1"></path><path d="m21.316406 457.257812c-10.378906 0-20.753906-6.703124-21.2734372-20.097656-.0234376-.5625-.0429688-1.125-.0429688-1.683594 0-15.773437 8.578125-29.542968 21.316406-36.914062-2.570312 7.371094-4.292968 21.140625-4.292968 36.914062 0 .558594 0 1.121094.007812 1.683594.105469 13.394532 2.195312 20.097656 4.285156 20.097656zm0 0" fill="#4d87a1"></path><path d="m114.753906 438.421875c-12.742187 7.371094-21.316406 21.136719-21.316406 36.914063 0 .566406.011719 1.125.03125 1.683593 1.039062 26.796875 41.527344 26.796875 42.566406 0 .023438-.558593.03125-1.117187.03125-1.683593.003906-15.777344-8.574218-29.542969-21.3125-36.914063zm0 0" fill="#84abc1"></path><path d="m114.753906 497.117188c-10.378906 0-20.757812-6.703126-21.277344-20.097657-.019531-.5625-.039062-1.125-.039062-1.683593 0-15.773438 8.578125-29.542969 21.316406-36.914063-2.570312 7.371094-4.296875 21.140625-4.296875 36.914063 0 .558593 0 1.121093.011719 1.683593.105469 13.394531 2.195312 20.097657 4.285156 20.097657zm0 0" fill="#4d87a1"></path><path d="m114.753906 329.023438c-12.742187 7.371093-21.316406 21.136718-21.316406 36.914062 0 .5625.011719 1.125.03125 1.679688 1.039062 26.800781 41.527344 26.800781 42.566406 0 .023438-.554688.03125-1.117188.03125-1.679688.003906-15.777344-8.574218-29.542969-21.3125-36.914062zm0 0" fill="#84abc1"></path><path d="m114.753906 387.71875c-10.378906 0-20.757812-6.707031-21.277344-20.101562-.019531-.558594-.039062-1.121094-.039062-1.683594 0-15.773438 8.578125-29.539063 21.316406-36.914063-2.570312 7.375-4.296875 21.140625-4.296875 36.914063 0 .5625 0 1.125.011719 1.683594.105469 13.394531 2.195312 20.101562 4.285156 20.101562zm0 0" fill="#4d87a1"></path><path d="m208.1875 398.5625c-12.738281 7.371094-21.316406 21.136719-21.316406 36.914062 0 .566407.011718 1.125.03125 1.683594 1.042968 26.796875 41.527344 26.796875 42.566406 0 .023438-.558594.035156-1.117187.035156-1.683594 0-15.777343-8.578125-29.542968-21.316406-36.914062zm0 0" fill="#84abc1"></path><path d="m208.1875 457.257812c-10.378906 0-20.753906-6.703124-21.273438-20.097656-.023437-.5625-.042968-1.125-.042968-1.683594 0-15.773437 8.578125-29.542968 21.316406-36.914062-2.566406 7.371094-4.292969 21.140625-4.292969 36.914062 0 .558594 0 1.121094.007813 1.683594.105468 13.394532 2.195312 20.097656 4.285156 20.097656zm0 0" fill="#4d87a1"></path><path d="m301.625 438.421875c-12.738281 7.371094-21.316406 21.136719-21.316406 36.914063 0 .566406.007812 1.125.03125 1.683593 1.039062 26.796875 41.527344 26.796875 42.566406 0 .023438-.558593.03125-1.117187.03125-1.683593.003906-15.777344-8.574219-29.542969-21.3125-36.914063zm0 0" fill="#84abc1"></path><path d="m301.625 497.117188c-10.378906 0-20.757812-6.703126-21.277344-20.097657-.019531-.5625-.039062-1.125-.039062-1.683593 0-15.773438 8.578125-29.542969 21.316406-36.914063-2.570312 7.371094-4.296875 21.140625-4.296875 36.914063 0 .558593 0 1.121093.011719 1.683593.105468 13.394531 2.195312 20.097657 4.285156 20.097657zm0 0" fill="#4d87a1"></path><path d="m489.035156 438.421875c-12.738281 7.371094-21.316406 21.136719-21.316406 36.914063 0 .566406.011719 1.125.03125 1.683593 1.042969 26.796875 41.527344 26.796875 42.566406 0 .023438-.558593.035156-1.117187.035156-1.683593 0-15.777344-8.578124-29.542969-21.316406-36.914063zm0 0" fill="#84abc1"></path><path d="m489.035156 497.117188c-10.378906 0-20.753906-6.703126-21.273437-20.097657-.023438-.5625-.042969-1.125-.042969-1.683593 0-15.773438 8.578125-29.542969 21.316406-36.914063-2.570312 7.371094-4.296875 21.140625-4.296875 36.914063 0 .558593 0 1.121093.011719 1.683593.105469 13.394531 2.195312 20.097657 4.285156 20.097657zm0 0" fill="#4d87a1"></path><path d="m395.058594 398.5625c-12.738282 7.371094-21.316406 21.136719-21.316406 36.914062 0 .566407.011718 1.125.03125 1.683594 1.042968 26.796875 41.527343 26.796875 42.566406 0 .023437-.558594.035156-1.117187.035156-1.683594 0-15.777343-8.578125-29.542968-21.316406-36.914062zm0 0" fill="#84abc1"></path><path d="m395.058594 457.257812c-10.378906 0-20.753906-6.703124-21.273438-20.097656-.023437-.5625-.042968-1.125-.042968-1.683594 0-15.773437 8.578124-29.542968 21.316406-36.914062-2.566406 7.371094-4.292969 21.140625-4.292969 36.914062 0 .558594 0 1.121094.007813 1.683594.105468 13.394532 2.195312 20.097656 4.285156 20.097656zm0 0" fill="#4d87a1"></path><path d="m408.25 181.570312c0 37.824219-30.664062 68.492188-68.503906 68.492188h-247.886719c-50.296875 0-91.082031-40.773438-91.082031-91.082031 0-50.296875 40.78125-91.082031 91.082031-91.082031 4.511719 0 8.945313.347656 13.292969.976562 20.570312-40.84375 62.871094-68.875 111.742187-68.875 59.128907 0 108.667969 41.054688 121.679688 96.210938 1.300781 5.503906 2.238281 11.144531 2.777343 16.894531v.011719c37.082032.851562 66.898438 31.167968 66.898438 68.453124zm0 0" fill="#84abc1"></path><path d="m260.351562 7.769531c-13.539062-5.027343-28.183593-7.76562475-43.457031-7.76562475-48.871093 0-91.160156 28.03124975-111.742187 68.86328175v.011718c-4.347656-.628906-8.78125-.976562-13.292969-.976562-50.3125 0-91.082031 40.785156-91.082031 91.082031 0 50.3125 40.769531 91.082031 91.082031 91.082031h44.019531c-45.332031 0-82.066406-36.746094-82.066406-82.070312 0-40.214844 28.929688-73.683594 67.128906-80.703125 3.777344-.707031 7.648438-1.144531 11.597656-1.300781 1.105469-.035157 2.222657-.0625 3.339844-.0625 14.734375 0 28.570313 3.882812 40.515625 10.699218-1.660156-11.5625-13.613281-22.394531-31.238281-31.125 9.679688-32.726562 42.613281-63.078125 115.195312-57.734375zm0 0" fill="#4d87a1"></path><path d="m264.6875 245.550781c.496094.089844.789062.089844.835938.089844h-3.792969c.992187 0 1.972656-.03125 2.957031-.089844zm0 0" fill="#84abc1"></path><path d="m512 313.621094c0 30.589844-24.800781 55.390625-55.402344 55.390625h-200.476562c-40.675782 0-73.660156-32.972657-73.660156-73.660157 0-40.679687 32.984374-73.660156 73.660156-73.660156 3.648437 0 7.238281.28125 10.75.789063 16.640625-33.035157 50.847656-55.703125 90.371094-55.703125 47.824218 0 87.886718 33.203125 98.410156 77.808594 1.050781 4.453124 1.808594 9.015624 2.246094 13.664062v.011719c29.988281.683593 54.101562 25.203125 54.101562 55.359375zm0 0" fill="#d3ddea"></path><path d="m392.386719 173.0625c-10.949219-4.066406-22.792969-6.28125-35.144531-6.28125-39.523438 0-73.722657 22.667969-90.371094 55.691406v.011719c-3.515625-.511719-7.101563-.789063-10.75-.789063-40.6875 0-73.660156 32.980469-73.660156 73.660157 0 40.6875 32.972656 73.660156 73.660156 73.660156h35.601562c-36.664062 0-66.371094-29.71875-66.371094-66.371094 0-32.527343 23.394532-59.59375 54.289063-65.269531 3.058594-.574219 6.1875-.925781 9.378906-1.050781.894531-.03125 1.800781-.050781 2.703125-.050781 11.917969 0 23.105469 3.140624 32.765625 8.648437-1.339843-9.351563-11.007812-18.109375-25.261719-25.167969 7.824219-26.46875 34.460938-51.015625 93.160157-46.691406zm0 0" fill="#84abc1"></path></symbol><symbol id="sun" viewBox="0 0 511.99986 511.99986"><path d="m477.449219 256c0-21.75 39.410156-48.386719 34.050781-68.449219-5.550781-20.757812-53.15625-24.101562-63.671875-42.277343-10.667969-18.433594 10.125-61.304688-4.835937-76.265626-14.960938-14.960937-57.832032 5.828126-76.269532-4.835937-18.171875-10.515625-21.515625-58.121094-42.273437-63.671875-20.0625-5.359375-46.699219 34.050781-68.449219 34.050781s-48.386719-39.410156-68.449219-34.050781c-20.757812 5.550781-24.101562 53.15625-42.277343 63.671875-18.433594 10.667969-61.304688-10.125-76.265626 4.835937-14.960937 14.960938 5.828126 57.832032-4.835937 76.269532-10.515625 18.171875-58.121094 21.515625-63.671875 42.273437-5.359375 20.0625 34.050781 46.699219 34.050781 68.449219s-39.410156 48.386719-34.050781 68.449219c5.550781 20.757812 53.15625 24.101562 63.671875 42.277343 10.667969 18.433594-10.125 61.304688 4.835937 76.265626 14.960938 14.960937 57.832032-5.828126 76.269532 4.835937 18.171875 10.515625 21.515625 58.121094 42.273437 63.671875 20.0625 5.359375 46.699219-34.050781 68.449219-34.050781s48.386719 39.410156 68.449219 34.050781c20.757812-5.550781 24.101562-53.15625 42.277343-63.671875 18.433594-10.667969 61.304688 10.125 76.265626-4.835937 14.960937-14.960938-5.828126-57.832032 4.835937-76.269532 10.515625-18.171875 58.121094-21.515625 63.671875-42.273437 5.359375-20.0625-34.050781-46.699219-34.050781-68.449219zm0 0" fill="#ffee8c"></path><path d="m426.957031 256c0 86.347656-64.019531 157.746094-147.191406 169.3125-7.765625 1.089844-15.695313 1.640625-23.761719 1.640625-94.417968 0-170.96875-76.539063-170.96875-170.953125 0-94.417969 76.550782-170.957031 170.96875-170.957031 8.066406 0 15.996094.554687 23.761719 1.640625 83.171875 11.566406 147.191406 82.964844 147.191406 169.316406zm0 0" fill="#f28f44"></path><path d="m426.957031 256c0 86.347656-64.019531 157.746094-147.191406 169.3125-83.175781-11.566406-147.195313-82.964844-147.195313-169.3125 0-86.351562 64.019532-157.75 147.195313-169.316406 83.171875 11.566406 147.191406 82.964844 147.191406 169.316406zm0 0" fill="#ffd073"></path><g fill="#cc9236"><path d="m155.875 229.488281c-2.003906 0-4.011719-.765625-5.539062-2.296875-3.0625-3.0625-3.0625-8.023437 0-11.082031 17.53125-17.53125 46.054687-17.53125 63.582031 0 3.0625 3.058594 3.0625 8.019531 0 11.082031-3.058594 3.058594-8.019531 3.058594-11.082031 0-11.417969-11.421875-29.996094-11.421875-41.417969 0-1.53125 1.53125-3.535157 2.296875-5.542969 2.296875zm0 0"></path><path d="m356.125 229.488281c-2.007812 0-4.011719-.765625-5.542969-2.296875-11.417969-11.421875-30-11.417968-41.417969 0-3.0625 3.058594-8.023437 3.058594-11.082031 0-3.0625-3.0625-3.0625-8.023437 0-11.082031 17.527344-17.53125 46.054688-17.53125 63.585938 0 3.058593 3.058594 3.058593 8.023437 0 11.082031-1.53125 1.53125-3.539063 2.296875-5.542969 2.296875zm0 0"></path><path d="m256 310.582031c-17.015625 0-33.015625-6.628906-45.046875-18.660156-3.058594-3.0625-3.058594-8.023437 0-11.082031 3.0625-3.0625 8.023437-3.0625 11.082031 0 9.074219 9.070312 21.132813 14.066406 33.964844 14.066406s24.890625-4.996094 33.964844-14.066406c3.058594-3.0625 8.023437-3.0625 11.082031 0 3.058594 3.058594 3.058594 8.019531 0 11.082031-12.03125 12.03125-28.03125 18.660156-45.046875 18.660156zm0 0"></path></g></symbol><symbol id="thunderstorm" viewBox="0 0 512 512"><path d="m511.433594 227.894531c0 47.476563-38.488282 85.964844-85.980469 85.964844h-311.132813c-63.128906 0-114.320312-51.171875-114.320312-114.316406 0-63.132813 51.191406-114.320313 114.320312-114.320313 5.664063 0 11.230469.433594 16.6875 1.226563 25.820313-51.269531 78.910157-86.449219 140.25-86.449219 74.21875 0 136.398438 51.527344 152.726563 120.757812 1.632813 6.90625 2.808594 13.992188 3.488281 21.207032v.015625c46.539063 1.0625 83.960938 39.117187 83.960938 85.914062zm0 0" fill="#84abc1"></path><path d="m325.800781 9.753906c-16.992187-6.3125-35.371093-9.74999975-54.542969-9.74999975-61.339843 0-114.414062 35.18359375-140.253906 86.43359375v.015625c-5.453125-.789063-11.019531-1.226563-16.683594-1.226563-63.148437 0-114.320312 51.191407-114.320312 114.320313 0 63.148437 51.171875 114.320313 114.320312 114.320313h55.253907c-56.902344 0-103.007813-46.121094-103.007813-103.007813 0-50.476563 36.3125-92.484375 84.253906-101.292969 4.746094-.886718 9.601563-1.4375 14.558594-1.632812 1.386719-.046875 2.789063-.078125 4.195313-.078125 18.492187 0 35.855469 4.871093 50.851562 13.425781-2.085937-14.511719-17.085937-28.105469-39.207031-39.0625 12.144531-41.078125 53.484375-79.175781 144.582031-72.464844zm0 0" fill="#4d87a1"></path><path d="m357.722656 139.523438-194.324218 174.421874h48.257812l-70.503906 81.363282h50.609375l-80.035157 116.691406 191.855469-133.492188h-52.96875l84.746094-95.222656h-52.964844z" fill="#ffee8c"></path></symbol><symbol id="cloudy1" viewBox="0 0 512.0008 512"><path d="m442.46875 237.242188c0-20.15625 36.523438-44.839844 31.554688-63.429688-5.140626-19.238281-49.261719-22.335938-59.007813-39.179688-9.882813-17.085937 9.386719-56.816406-4.480469-70.683593-13.863281-13.863281-53.59375 5.40625-70.679687-4.480469-16.84375-9.742188-19.941407-53.863281-39.175781-59.003906-18.59375-4.96875-43.277344 31.554687-63.4375 31.554687-20.15625 0-44.839844-36.523437-63.433594-31.554687-19.234375 5.140625-22.335938 49.261718-39.175782 59.007812-17.085937 9.882813-56.816406-9.386718-70.683593 4.480469-13.863281 13.863281 5.40625 53.59375-4.480469 70.679687-9.742188 16.84375-53.863281 19.941407-59.003906 39.179688-4.96875 18.589844 31.554687 43.273438 31.554687 63.433594 0 20.15625-36.523437 44.839844-31.554687 63.433594 5.140625 19.234374 49.261718 22.335937 59.007812 39.175781 9.882813 17.085937-9.386718 56.816406 4.480469 70.683593 13.863281 13.863282 53.59375-5.40625 70.679687 4.480469 16.839844 9.742188 19.941407 53.863281 39.175782 59.003907 18.59375 4.96875 43.277344-31.554688 63.4375-31.554688 20.15625 0 44.839844 36.523438 63.433594 31.554688 19.234374-5.140626 22.332031-49.261719 39.175781-59.007813 17.085937-9.882813 56.816406 9.386719 70.683593-4.480469 13.863282-13.863281-5.40625-53.59375 4.480469-70.679687 9.742188-16.839844 53.863281-19.941407 59.003907-39.175781 4.96875-18.59375-31.554688-43.277344-31.554688-63.4375zm0 0" fill="#ffee8c"></path><path d="m395.671875 237.242188c0 81.136718-60.980469 148.03125-139.617187 157.328124-6.164063.730469-12.445313 1.109376-18.808594 1.109376-87.5 0-158.4375-70.9375-158.4375-158.4375s70.9375-158.425782 158.4375-158.425782c6.363281 0 12.644531.375 18.808594 1.105469 78.636718 9.300781 139.617187 76.183594 139.617187 157.320313zm0 0" fill="#f28f44"></path><path d="m395.671875 237.242188c0 81.136718-60.980469 148.03125-139.617187 157.328124-78.636719-9.296874-139.628907-76.191406-139.628907-157.328124 0-81.136719 60.992188-148.019532 139.628907-157.320313 78.636718 9.300781 139.617187 76.183594 139.617187 157.320313zm0 0" fill="#ffd073"></path><path d="m512 455.917969c0 30.738281-24.917969 55.660156-55.671875 55.660156h-201.453125c-40.878906 0-74.019531-33.132813-74.019531-74.019531 0-40.875 33.140625-74.019532 74.019531-74.019532 3.667969 0 7.269531.28125 10.804688.792969 16.714843-33.195312 51.09375-55.976562 90.808593-55.976562 48.054688 0 88.316407 33.363281 98.890625 78.191406 1.054688 4.472656 1.816406 9.058594 2.257813 13.730469v.007812c30.132812.691406 54.363281 25.328125 54.363281 55.632813zm0 0" fill="#d3ddea"></path><path d="m391.804688 314.671875c-11-4.085937-22.902344-6.3125-35.316407-6.3125-39.714843 0-74.082031 22.78125-90.8125 55.964844v.011719c-3.53125-.511719-7.136719-.792969-10.804687-.792969-40.886719 0-74.019532 33.144531-74.019532 74.019531 0 40.886719 33.132813 74.019531 74.019532 74.019531h35.777344c-36.839844 0-66.695313-29.863281-66.695313-66.695312 0-32.683594 23.511719-59.882813 54.554687-65.585938 3.074219-.578125 6.21875-.933593 9.425782-1.058593.898437-.03125 1.808594-.050782 2.714844-.050782 11.976562 0 23.21875 3.15625 32.925781 8.695313-1.347657-9.398438-11.0625-18.199219-25.386719-25.292969 7.867188-26.597656 34.632812-51.265625 93.617188-46.921875zm0 0" fill="#84abc1"></path><g fill="#cc9236"><path d="m193.113281 213.246094c-2.007812 0-4.011719-.761719-5.542969-2.292969-5.015624-5.019531-11.6875-7.78125-18.785156-7.78125s-13.769531 2.761719-18.785156 7.78125c-3.0625 3.058594-8.023438 3.058594-11.082031 0-3.0625-3.0625-3.0625-8.023437 0-11.082031 7.976562-7.980469 18.585937-12.375 29.867187-12.375 11.285156 0 21.890625 4.394531 29.871094 12.375 3.058594 3.058594 3.058594 8.023437 0 11.082031-1.535156 1.53125-3.539062 2.292969-5.542969 2.292969zm0 0"></path><path d="m330.03125 213.246094c-2.003906 0-4.007812-.761719-5.539062-2.292969-10.359376-10.359375-27.214844-10.359375-37.574219 0-3.0625 3.058594-8.023438 3.058594-11.082031 0-3.0625-3.0625-3.0625-8.023437 0-11.082031 16.46875-16.46875 43.269531-16.46875 59.738281 0 3.0625 3.058594 3.0625 8.019531 0 11.082031-1.53125 1.53125-3.535157 2.292969-5.542969 2.292969zm0 0"></path><path d="m237.246094 278.4375c-17.019532 0-33.015625-6.625-45.050782-18.660156-3.058593-3.058594-3.058593-8.019532 0-11.082032 3.0625-3.058593 8.023438-3.058593 11.082032 0 9.074218 9.074219 21.136718 14.070313 33.964844 14.070313 12.832031 0 24.894531-4.996094 33.964843-14.070313 3.0625-3.058593 8.023438-3.058593 11.082031 0 3.0625 3.0625 3.0625 8.023438 0 11.082032-12.03125 12.035156-28.027343 18.660156-45.042968 18.660156zm0 0"></path></g></symbol><symbol id="wind" viewBox="0 -53 512 512"><path d="m270.035156 186.625h-207.023437c-4.207031 0-7.613281-3.410156-7.613281-7.613281s3.40625-7.609375 7.613281-7.609375h207.023437c4.207032 0 7.613282 3.40625 7.613282 7.609375s-3.410157 7.613281-7.613282 7.613281zm0 0" fill="#d3ddea"></path><path d="m448.652344 186.625h-148.167969c-4.207031 0-7.613281-3.410156-7.613281-7.613281s3.40625-7.609375 7.613281-7.609375h148.167969c4.203125 0 7.609375 3.40625 7.609375 7.609375s-3.40625 7.613281-7.609375 7.613281zm0 0" fill="#d3ddea"></path><path d="m416.175781 227.078125h-385.640625c-4.203125 0-7.609375-3.40625-7.609375-7.609375s3.40625-7.613281 7.609375-7.613281h385.640625c4.203125 0 7.609375 3.410156 7.609375 7.613281s-3.40625 7.609375-7.609375 7.609375zm0 0" fill="#84abc1"></path><path d="m460.75 359.601562c-28.257812 0-51.25-22.992187-51.25-51.25 0-4.203124 3.40625-7.609374 7.613281-7.609374 4.203125 0 7.609375 3.40625 7.609375 7.609374 0 19.867188 16.164063 36.027344 36.027344 36.027344 19.867188 0 36.027344-16.160156 36.027344-36.027344 0-19.867187-16.160156-36.027343-36.027344-36.027343h-377.441406c-4.207032 0-7.613282-3.40625-7.613282-7.609375s3.40625-7.613282 7.613282-7.613282h377.441406c28.261719 0 51.25 22.992188 51.25 51.25 0 28.257813-22.992188 51.25-51.25 51.25zm0 0" fill="#d3ddea"></path><g fill="#84abc1"><path d="m116.796875 318.308594h-100.46875c-4.203125 0-7.613281-3.40625-7.613281-7.609375s3.410156-7.613281 7.613281-7.613281h100.46875c4.203125 0 7.609375 3.410156 7.609375 7.613281s-3.40625 7.609375-7.609375 7.609375zm0 0"></path><path d="m328.09375 405.585938c-28.257812 0-51.25-22.988282-51.25-51.25 0-4.203126 3.40625-7.609376 7.613281-7.609376 4.203125 0 7.609375 3.40625 7.609375 7.609376 0 19.867187 16.164063 36.027343 36.027344 36.027343 19.867188 0 36.027344-16.160156 36.027344-36.027343 0-19.863282-16.160156-36.027344-36.027344-36.027344h-175.777344c-4.203125 0-7.609375-3.40625-7.609375-7.609375s3.40625-7.613281 7.609375-7.613281h175.777344c28.261719 0 51.25 22.992187 51.25 51.25 0 28.261718-22.988281 51.25-51.25 51.25zm0 0"></path><path d="m385.054688 146.167969h-377.445313c-4.203125 0-7.609375-3.40625-7.609375-7.609375s3.40625-7.613282 7.609375-7.613282h377.445313c19.867187 0 36.027343-16.160156 36.027343-36.027343 0-19.863281-16.160156-36.027344-36.027343-36.027344-19.867188 0-36.027344 16.164063-36.027344 36.027344 0 4.203125-3.40625 7.613281-7.609375 7.613281-4.207031 0-7.613281-3.410156-7.613281-7.613281 0-28.257813 22.992187-51.25 51.25-51.25 28.257812 0 51.25 22.992187 51.25 51.25 0 28.261719-22.992188 51.25-51.25 51.25zm0 0"></path></g><path d="m239.378906 102.5h-176.367187c-4.207031 0-7.613281-3.410156-7.613281-7.613281s3.40625-7.609375 7.613281-7.609375h176.367187c19.863282 0 36.027344-16.164063 36.027344-36.027344 0-19.867188-16.164062-36.027344-36.027344-36.027344-19.867187 0-36.027344 16.160156-36.027344 36.027344 0 4.203125-3.40625 7.609375-7.613281 7.609375-4.203125 0-7.609375-3.40625-7.609375-7.609375 0-28.261719 22.988282-51.25 51.25-51.25 28.257813 0 51.25 22.988281 51.25 51.25 0 28.257812-22.992187 51.25-51.25 51.25zm0 0" fill="#d3ddea"></path></symbol></svg>