<?xml version="1.0" encoding="utf-8"?>
<!-- Generator: Adobe Illustrator 21.0.0, SVG Export Plug-In . SVG Version: 6.00 Build 0)  -->
<svg version="1.1" id="Layer_1" xmlns="http://www.w3.org/2000/svg" xmlns:xlink="http://www.w3.org/1999/xlink" x="0px" y="0px"
	 viewBox="0 0 512 512" style="enable-background:new 0 0 512 512;" xml:space="preserve">
<path d="M460.2,51.8c-69.1-69.1-181.5-69.1-250.5,0c-61.4,61.4-69,157.9-19.2,227.9l-40,40l-7.7-7.7c-3.7-3.7-9.6-3.7-13.2,0
	l-115,115c-2.9,2.9-5.4,6.2-7.6,9.7c-11.7,19.6-8.6,44.6,7.6,60.7C24.2,507,37,512,49.8,512c8.7,0,17.5-2.3,25.5-7
	c3.5-2.1,6.8-4.6,9.7-7.6l58.7-58.7c3.7-3.7,3.7-9.6,0-13.2c-3.7-3.7-9.6-3.7-13.2,0l-58.7,58.7c-0.1,0.1-0.3,0.2-0.4,0.4
	l-43.9-43.9c0.1-0.1,0.2-0.3,0.4-0.4l108.3-108.3l43.9,43.9l-29.7,29.7c-3.7,3.7-3.7,9.6,0,13.2c3.7,3.7,9.6,3.7,13.2,0l36.3-36.3
	c1.8-1.8,2.7-4.1,2.7-6.6s-1-4.9-2.7-6.6l-7.7-7.7l40-40c30.8,21.9,66.7,32.7,102.5,32.7c45.6,0,91-17.5,125.4-51.9
	C529.3,233.2,529.3,120.9,460.2,51.8z M53.4,493c-9.2,1.1-18.6-2-25.5-8.9c-6.9-6.9-10-16.4-8.9-25.5L53.4,493z M179.1,348.3
	l-15.3-15.3l38.5-38.5c2.4,2.7,4.9,5.3,7.4,7.9c2.6,2.6,5.2,5,7.9,7.4L179.1,348.3z M447,289.1c-56.7,56.7-146.9,62.1-209.8,12.6
	c-4.9-3.9-9.7-8.1-14.2-12.6c-4.5-4.5-8.8-9.3-12.6-14.2c0,0,0,0,0,0c-49.5-62.9-44-153.1,12.6-209.8c30.9-30.9,71.4-46.3,112-46.3
	s81.1,15.4,112,46.3C508.7,126.8,508.7,227.3,447,289.1z M423.8,88.2c-3.7-3.7-9.6-3.7-13.2,0c-3.7,3.7-3.7,9.6,0,13.2
	c20.2,20.2,31.3,47,31.3,75.6s-11.1,55.4-31.3,75.6c-41.7,41.7-109.5,41.7-151.2,0c-20.2-20.2-31.3-47-31.3-75.6
	s11.1-55.4,31.3-75.6c34.7-34.7,88.2-41.4,130.3-16.3c4.4,2.7,10.2,1.2,12.8-3.2s1.2-10.2-3.2-12.8
	c-49.4-29.5-112.4-21.6-153.1,19.1c-23.7,23.7-36.8,55.3-36.8,88.8s13.1,65.1,36.8,88.8c24.5,24.5,56.7,36.7,88.8,36.7
	c32.2,0,64.3-12.2,88.8-36.7c23.7-23.7,36.8-55.3,36.8-88.8S447.5,112,423.8,88.2z"/>
</svg>
