<?xml version="1.0" encoding="utf-8"?>
<!-- Generator: Adobe Illustrator 21.0.0, SVG Export Plug-In . SVG Version: 6.00 Build 0)  -->
<svg version="1.1" id="Layer_1" xmlns="http://www.w3.org/2000/svg" xmlns:xlink="http://www.w3.org/1999/xlink" x="0px" y="0px"
	 viewBox="0 0 512 512" style="enable-background:new 0 0 512 512;" xml:space="preserve">

	<path fill="#84ABC1" d="M256,91.8c-90.7,0-164.2,73.5-164.2,164.2S165.3,420.2,256,420.2S420.2,346.7,420.2,256
		C420,165.4,346.6,92,256,91.8z"/>
	<path fill="#D3DDEA" d="M420.5,256c0,85.7-64.4,156.3-147.5,166.2C190,412.3,125.6,341.7,125.6,256S190,99.7,273.1,89.8
		C356.1,99.7,420.5,170.3,420.5,256z"/>
	<path fill="#E53737" d="M367.1,376.8c-62.8,57.8-159.5,57.8-222.3,0C207.7,319,304.3,319,367.1,376.8z"/>
	<path fill="#FF7694" d="M260.1,420.1c38.5-1,76.7-15.4,107.1-43.3c-56.9-52.4-141.6-57.3-203.7-14.8
		C187.5,391.4,221.4,412.4,260.1,420.1z"/>
	<path fill="#FF7694" d="M269.5,279.4c-10.9,10.1-29.4,3-36.8-9.9c-7.5-12.9-4.4-32.4,9.9-36.8l116.2-35.9L269.5,279.4z"/>
	<path fill="#4D87A1" d="M256,57C146.1,57,57,146.1,57,256s89.1,199,199,199s199-89.1,199-199C454.8,146.2,365.8,57.2,256,57z
		 M256,420.1c-88-0.2-160.3-69.6-164-157.5h17.6c3.6,0,6.6-2.9,6.6-6.6s-2.9-6.6-6.6-6.6H92c1-24.3,7.4-48.1,18.7-69.7l15.4,8.8
		c3.2,1.8,7.2,0.7,9-2.4c1.8-3.2,0.7-7.2-2.4-9l-15.3-8.8c13-20.5,30.3-37.9,50.8-50.9l8.8,15.3c1.8,3.2,5.8,4.2,9,2.4
		c3.2-1.8,4.2-5.8,2.4-9l-8.8-15.3C201.2,99.4,225,93,249.4,92v17.6c-0.1,3.6,2.7,6.7,6.4,6.8c0.1,0,0.1,0,0.2,0
		c3.6,0,6.6-2.9,6.6-6.6V92.2c24.3,1,48.1,7.4,69.7,18.7l-8.8,15.4c-1.8,3.2-0.7,7.2,2.4,9c3.2,1.8,7.2,0.7,9-2.4l8.8-15.3
		c20.5,12.9,37.8,30.2,50.9,50.5l-15.3,8.8c-3.2,1.8-4.2,5.8-2.4,9c1.8,3.2,5.8,4.2,9,2.4l15.3-8.8c11.4,21.5,17.8,45.3,18.7,69.7
		h-17.6c-3.6,0-6.6,2.9-6.6,6.6s3,6.6,6.6,6.6h17.6C416.3,350.4,344,420,256,420.1L256,420.1z"/>
	<path fill="#D3DDEA" d="M270,256c0,7.8-6.3,14-14,14s-14-6.3-14-14s6.3-14,14-14S270,248.2,270,256z"/>

</svg>
